<svg width="101" height="24" viewBox="0 0 101 24" fill="none" xmlns="http://www.w3.org/2000/svg">
<path d="M58.5125 21.0626C58.5125 21.2542 58.575 21.3626 58.6833 21.3626C58.7712 21.3507 58.8544 21.3162 58.925 21.2626L90.0917 1.03757C90.6181 0.668848 91.2491 0.478968 91.8917 0.495901H98.7417C99.7917 0.495901 100.5 1.1959 100.5 2.2459V15.3251C100.5 16.9084 100.15 17.8251 98.75 18.6626L90.4417 23.6626C90.359 23.7199 90.2627 23.7544 90.1625 23.7626C90.0625 23.7626 89.9625 23.6834 89.9625 23.3959V8.1334C89.9625 7.95423 89.9125 7.83757 89.7917 7.83757C89.7033 7.84741 89.6195 7.88208 89.55 7.93756L66.775 22.7334C66.2594 23.0843 65.6487 23.269 65.025 23.2626H49.925C48.8667 23.2626 48.1667 22.5626 48.1667 21.5042V2.65423C48.1667 2.51673 48.1042 2.38757 47.9833 2.38757C47.8967 2.39919 47.8147 2.43371 47.7458 2.48757L32.7167 11.5001C32.5667 11.6001 32.525 11.6709 32.525 11.7417C32.525 11.8001 32.5583 11.8626 32.6583 11.9709L43.3958 22.7001C43.5375 22.8417 43.6375 22.9501 43.6375 23.0709C43.6375 23.1709 43.475 23.2501 43.2875 23.2501H33.5833C32.8208 23.2501 32.2333 23.1417 31.8208 22.7292L25.3125 16.2292C25.2879 16.1997 25.2574 16.1755 25.2229 16.1583C25.1885 16.1411 25.1509 16.1312 25.1125 16.1292C25.0417 16.1332 24.973 16.1547 24.9125 16.1917L14.0375 22.7334C13.5175 23.0827 12.9012 23.2605 12.275 23.2417H2.27083C1.2 23.2501 0.5 22.5417 0.5 21.4959V8.66257C0.5 7.07923 0.85 6.16257 2.25833 5.32923L10.625 0.300068C10.6899 0.258829 10.7648 0.2358 10.8417 0.233398C10.975 0.233398 11.0417 0.3584 11.0417 0.650067V17.8334C11.0417 18.0126 11.0833 18.0959 11.2125 18.0959C11.3023 18.0819 11.3878 18.0477 11.4625 17.9959L39.6958 1.00007C40.2432 0.631628 40.8952 0.450365 41.5542 0.4834H56.7542C57.8042 0.4834 58.5125 1.1834 58.5125 2.2334L58.5042 21.0584L58.5125 21.0626Z" fill="#576F75"/>
</svg>
