<svg width="15" height="16" viewBox="0 0 15 16" fill="none" xmlns="http://www.w3.org/2000/svg">
<g clip-path="url(#clip0_69_38)">
<path d="M3.22329 14.0007H0.237857V4.65379H3.22329V14.0007ZM1.72896 3.37879C0.774321 3.37879 0 2.61004 0 1.68191C6.83292e-09 1.2361 0.182158 0.808548 0.506402 0.493311C0.830646 0.178075 1.27041 0.000976562 1.72896 0.000976562C2.18751 0.000976562 2.62728 0.178075 2.95153 0.493311C3.27577 0.808548 3.45793 1.2361 3.45793 1.68191C3.45793 2.61004 2.68329 3.37879 1.72896 3.37879ZM14.3968 14.0007H11.4178V9.45066C11.4178 8.36628 11.3953 6.97566 9.86561 6.97566C8.31343 6.97566 8.07557 8.15378 8.07557 9.37253V14.0007H5.09336V4.65379H7.95664V5.92879H7.99843C8.397 5.19441 9.37061 4.41941 10.8231 4.41941C13.8446 4.41941 14.4 6.35379 14.4 8.86628V14.0007H14.3968Z" fill="#872F8B"/>
</g>
<defs>
<clipPath id="clip0_69_38">
<rect width="14.4" height="16" fill="white"/>
</clipPath>
</defs>
</svg>
