<svg width="25" height="25" viewBox="0 0 25 25" fill="none" xmlns="http://www.w3.org/2000/svg">
<path d="M12.5 2.5C8.1 2.5 4.5 6.1 4.5 10.5C4.5 15.9 11.5 22 11.8 22.3C12 22.4 12.3 22.5 12.5 22.5C12.7 22.5 13 22.4 13.2 22.3C13.5 22 20.5 15.9 20.5 10.5C20.5 6.1 16.9 2.5 12.5 2.5ZM12.5 20.2C10.4 18.2 6.5 13.9 6.5 10.5C6.5 7.2 9.2 4.5 12.5 4.5C15.8 4.5 18.5 7.2 18.5 10.5C18.5 13.8 14.6 18.2 12.5 20.2ZM12.5 6.5C10.3 6.5 8.5 8.3 8.5 10.5C8.5 12.7 10.3 14.5 12.5 14.5C14.7 14.5 16.5 12.7 16.5 10.5C16.5 8.3 14.7 6.5 12.5 6.5ZM12.5 12.5C11.4 12.5 10.5 11.6 10.5 10.5C10.5 9.4 11.4 8.5 12.5 8.5C13.6 8.5 14.5 9.4 14.5 10.5C14.5 11.6 13.6 12.5 12.5 12.5Z" fill="#872F8B"/>
</svg>
