<svg width="101" height="24" viewBox="0 0 101 24" fill="none" xmlns="http://www.w3.org/2000/svg">
<path d="M69.625 0.950065V23.0501H72.9417V0.950065H69.625ZM34.2208 0.575068C27.7625 0.575068 22.7542 5.2709 22.7542 12.0001C22.7542 19.0292 27.7625 23.4251 34.2208 23.4251C40.6792 23.4251 45.6958 19.0292 45.6833 12.0001C45.6956 10.4931 45.4072 8.99886 44.8351 7.60471C44.2629 6.21056 43.4185 4.94452 42.3511 3.88066C41.2838 2.8168 40.015 1.9765 38.6189 1.40891C37.2229 0.841318 35.7277 0.557843 34.2208 0.575068ZM42.375 12.0001C42.375 16.9792 38.725 20.2792 34.2208 20.2792C29.7125 20.2792 26.0625 16.9792 26.0625 12.0001C26.0625 7.1084 29.7125 3.7209 34.2208 3.7209C38.7208 3.7209 42.375 7.1084 42.375 12.0001ZM0.5 0.233398V23.0501H3.88333V7.9709L21.4583 23.7626V19.0334L0.5 0.233398ZM48.175 12.0001L60.475 23.0501H65.4083L53.0917 12.0001L65.4083 0.950065H60.475L48.175 12.0001ZM100.5 23.0501H96.8542L94.1875 18.1542H82.1125L79.4458 23.0501H75.8L80.2167 14.8917H92.4542L86.35 3.5584L88.15 0.233398L100.5 23.0501Z" fill="#576F75"/>
</svg>
