<svg width="101" height="24" viewBox="0 0 101 24" fill="none" xmlns="http://www.w3.org/2000/svg">
<path d="M12.375 15.275C7.32917 15.225 4.075 12.8334 4.075 9.17088C4.075 5.50838 7.32917 3.12088 12.3667 3.06671C17.4083 3.12088 20.6667 5.51671 20.6667 9.17088C20.6667 12.825 17.4083 15.225 12.375 15.275ZM12.5167 0.116713H12.2125C5.31667 0.229213 0.5 3.95005 0.5 9.16671C0.5 14.3834 5.31667 18.1125 12.2125 18.225H12.5167C19.4125 18.1125 24.2292 14.3875 24.2292 9.16671C24.2292 3.94588 19.4125 0.229213 12.5167 0.116713ZM88.6417 15.275C83.6 15.225 80.3417 12.8292 80.3417 9.17088C80.3417 5.51255 83.6 3.12088 88.6375 3.06671C93.6792 3.12088 96.9333 5.51671 96.9333 9.17088C96.9333 12.825 93.6792 15.225 88.6417 15.275ZM88.7875 0.116713H88.4833C81.5875 0.229213 76.7708 3.95005 76.7708 9.17088C76.7708 14.3917 81.5875 18.1167 88.4792 18.2292H88.7875C95.6833 18.1167 100.5 14.3917 100.5 9.16671C100.5 3.94171 95.6833 0.229213 88.7875 0.116713ZM63.2625 15.275C58.2208 15.225 54.9708 12.8292 54.9708 9.17088C54.9708 5.51255 58.2208 3.12088 63.2625 3.06671C68.3042 3.12088 71.5583 5.51671 71.5583 9.17088C71.5583 12.825 68.3042 15.225 63.2667 15.275H63.2625ZM63.4125 0.116713H63.1083C59.8208 0.17088 57.0083 1.04171 54.9625 2.50838V0.966715H51.3917V23.8834H54.9625V15.8375C57.0042 17.3 59.8208 18.1709 63.1042 18.2292H63.4125C70.3083 18.1167 75.1208 14.3917 75.1208 9.17088C75.1208 3.95005 70.3083 0.229213 63.4125 0.116713ZM37.8125 15.275C32.7708 15.225 29.5208 12.8292 29.5208 9.17088C29.5208 5.51255 32.7708 3.12088 37.8125 3.06671C42.8542 3.12088 46.1083 5.51671 46.1083 9.17088C46.1083 12.825 42.8542 15.225 37.8167 15.275H37.8125ZM37.9667 0.116713H37.6667C34.3792 0.17088 31.5667 1.04171 29.5208 2.50838V0.966715H25.9542V23.8834H29.5208V15.8375C31.5667 17.3 34.3792 18.1709 37.6667 18.2292C37.7681 18.2302 37.8694 18.2302 37.9708 18.2292C44.8667 18.1167 49.6833 14.3917 49.6833 9.17088C49.6833 3.95005 44.8667 0.229213 37.975 0.116713H37.9667Z" fill="#576F75"/>
</svg>
