<svg width="101" height="34" viewBox="0 0 101 34" fill="none" xmlns="http://www.w3.org/2000/svg">
<path d="M25.5038 1.0376C27.9815 1.0376 29.9903 3.04575 29.9903 5.52371C29.9903 8.00199 27.9815 10.0101 25.5038 10.0101H4.98658C2.50862 10.0101 0.499987 8.00199 0.499987 5.52371C0.499987 3.04575 2.50862 1.0376 4.98642 1.0376H25.5038Z" fill="#576F75"/>
<path d="M23.4415 12.7932C25.9197 12.7932 27.9283 14.8016 27.9283 17.2796C27.9283 19.7575 25.9197 21.766 23.4415 21.766H11.7639C10.7679 21.7696 9.95268 22.5575 9.91455 23.5435V29.3909C9.91455 31.8685 7.90592 33.877 5.4286 33.877C2.95065 33.877 0.942009 31.8685 0.942009 29.3909V19.4396C0.942009 15.769 3.91756 12.793 7.5883 12.793L23.4415 12.7932ZM32.0277 4.57799C32.0277 2.10035 34.0363 0.0915527 36.5141 0.0915527C38.9922 0.0915527 41.0005 2.10035 41.0005 4.57799V29.4222C41.0005 31.9002 38.9924 33.9086 36.5141 33.9086C34.0364 33.9086 32.0277 31.9 32.0277 29.4222V4.57799ZM87.2457 25.0101L89.0487 25.0056C89.2256 25.0054 89.3952 24.935 89.5203 24.8099C89.6454 24.6848 89.7158 24.5151 89.7159 24.3382C89.7186 24.2505 89.7026 24.1633 89.6687 24.0824L82.9648 12.8171L72.4917 30.9517C71.6826 32.354 70.2299 33.1537 68.7222 33.1939C68.6773 33.2002 68.6319 33.2034 68.5865 33.2034H51.5423C47.8714 33.2034 44.8957 30.2276 44.8957 26.557V4.57831C44.8957 2.10051 46.9045 0.0917142 49.3821 0.0917142C51.8596 0.0917142 53.8685 2.10051 53.8685 4.57815V22.3807C53.8718 23.3772 54.6595 24.1929 55.6461 24.2301H65.1806C65.4258 24.1546 66.1758 23.8997 66.4042 23.5448L78.3799 2.81379C79.2887 1.25347 80.9791 0.203027 82.9139 0.203027C84.8496 0.203027 86.5403 1.25509 87.445 2.81863L99.1146 22.411C100.015 23.5814 100.502 25.0172 100.5 26.4938C100.5 30.1995 97.4958 33.2031 93.7908 33.2031H80.1882C77.9248 33.2031 76.0916 31.3688 76.0916 29.106C76.0916 26.8441 77.925 25.0101 80.1882 25.0101H87.2457Z" fill="#576F75"/>
</svg>
