<svg width="14" height="14" viewBox="0 0 14 14" fill="none" xmlns="http://www.w3.org/2000/svg">
<path d="M9.24 6.9115C9.24 7.34893 9.10863 7.77654 8.86249 8.14024C8.61636 8.50395 8.26652 8.78743 7.85721 8.95483C7.4479 9.12222 6.99752 9.16602 6.563 9.08068C6.12848 8.99535 5.72935 8.7847 5.41608 8.4754C5.10281 8.16609 4.88947 7.772 4.80304 7.34298C4.71661 6.91395 4.76097 6.46926 4.93051 6.06513C5.10005 5.661 5.38716 5.31558 5.75552 5.07256C6.12389 4.82953 6.55697 4.69982 7 4.69982C7.59388 4.70049 8.16323 4.93372 8.58317 5.34835C9.0031 5.76297 9.23932 6.32513 9.24 6.9115ZM14 3.87044V9.95256C13.9988 10.9787 13.5854 11.9625 12.8506 12.6881C12.1157 13.4137 11.1193 13.8218 10.08 13.823H3.92C2.88071 13.8218 1.88433 13.4137 1.14944 12.6881C0.414554 11.9625 0.00117703 10.9787 0 9.95256V3.87044C0.00117703 2.84429 0.414554 1.86051 1.14944 1.13491C1.88433 0.409313 2.88071 0.00116215 3.92 0H10.08C11.1193 0.00116215 12.1157 0.409313 12.8506 1.13491C13.5854 1.86051 13.9988 2.84429 14 3.87044ZM10.36 6.9115C10.36 6.25536 10.1629 5.61395 9.79374 5.06839C9.42454 4.52282 8.89978 4.09761 8.28582 3.84651C7.67186 3.59542 6.99627 3.52972 6.3445 3.65773C5.69272 3.78573 5.09403 4.1017 4.62412 4.56566C4.15422 5.02962 3.83421 5.62075 3.70456 6.26429C3.57492 6.90782 3.64145 7.57486 3.89577 8.18106C4.15008 8.78726 4.58073 9.30538 5.13328 9.66992C5.68583 10.0345 6.33545 10.229 7 10.229C7.89082 10.228 8.74486 9.87818 9.37477 9.25624C10.0047 8.6343 10.359 7.79106 10.36 6.9115ZM11.48 3.31752C11.48 3.15348 11.4307 2.99313 11.3384 2.85674C11.2461 2.72035 11.1149 2.61405 10.9615 2.55127C10.808 2.4885 10.6391 2.47207 10.4761 2.50408C10.3132 2.53608 10.1635 2.61507 10.046 2.73106C9.92855 2.84705 9.84855 2.99483 9.81614 3.15572C9.78373 3.3166 9.80036 3.48336 9.86394 3.63491C9.92752 3.78646 10.0352 3.91599 10.1733 4.00713C10.3115 4.09826 10.4739 4.1469 10.64 4.1469C10.8628 4.1469 11.0764 4.05952 11.234 3.90398C11.3915 3.74844 11.48 3.53749 11.48 3.31752Z" fill="#872F8B"/>
</svg>
