<svg width="101" height="40" viewBox="0 0 101 40" fill="none" xmlns="http://www.w3.org/2000/svg">
<path d="M85.5833 0.604248V38.8542H92.4625V0.604248H85.5833ZM0.5 1.14592V8.38341H7.7375V1.14175L0.5 1.14592ZM41.25 2.61258V27.8334C41.25 29.9709 41.4333 31.7709 41.7917 33.2167C42.1542 34.6334 42.7708 35.7917 43.625 36.6667C44.4708 37.5417 45.6042 38.1626 46.9708 38.5459C48.3625 38.9334 50.1125 39.1126 52.2 39.1126H53.1V32.7251C52.1 32.7251 51.2458 32.6751 50.6292 32.5709C50.0236 32.5135 49.4531 32.2605 49.0042 31.8501C48.6091 31.4123 48.3576 30.8642 48.2833 30.2792C48.1681 29.4427 48.1165 28.5986 48.1292 27.7542V18.6626H53.1V12.7626H48.1292V2.61258H41.25ZM26.6458 12.2459C24.9958 12.2459 23.4792 12.5792 22.1375 13.2501C20.775 13.9209 19.6375 14.8501 18.7125 16.0334L18.35 16.5209V12.7626H11.575V38.8292H18.4042V25.4376C18.4792 22.9876 19.0708 21.1876 20.2083 20.0251C21.4167 18.7876 22.8833 18.1709 24.5583 18.1709C26.5417 18.1709 28.0625 18.7917 29.0667 19.9751C30.0458 21.1584 30.5625 22.8334 30.5625 24.9751V38.8251H37.4917V24.0417C37.5167 20.3334 36.5375 17.3959 34.6333 15.3334C32.725 13.2709 30.05 12.2417 26.6458 12.2417V12.2459ZM68.5833 12.2709C66.8013 12.2638 65.0353 12.6083 63.3865 13.2847C61.7378 13.961 60.2387 14.956 58.975 16.2126C57.7667 17.4209 56.7875 18.8667 56.0917 20.5167C55.3739 22.192 55.0134 23.9985 55.0333 25.8209C55.0333 27.7042 55.3667 29.4792 56.0375 31.1292C56.7083 32.7751 57.6625 34.2209 58.8458 35.4292C60.0292 36.6376 61.5 37.6209 63.2 38.3167C64.9 39.0376 66.7833 39.4001 68.7917 39.4001C74.6125 39.4001 78.2167 36.7459 80.3833 34.2751L75.4375 30.5084C74.4042 31.7459 71.9333 33.4209 68.8417 33.4209C66.9083 33.4209 65.3125 32.9834 64.1 32.0834C62.8866 31.1891 62.0149 29.9073 61.6292 28.4501L61.55 28.2167H82.0292V25.7709C82.0292 23.8917 81.6958 22.1376 81.05 20.4917C80.401 18.9016 79.4677 17.4431 78.2958 16.1876C77.093 14.9439 75.646 13.9622 74.0458 13.3042C72.3129 12.5965 70.4551 12.245 68.5833 12.2709ZM0.679167 12.7626V38.8292H7.55833V12.7626H0.679167ZM68.5042 18.1209C73.2208 18.1209 75.4375 21.4417 75.4375 23.3501L61.6042 23.3751C61.6042 21.4667 63.7917 18.1459 68.5042 18.1209ZM97.975 34.0126C97.3053 34.0126 96.6631 34.2786 96.1896 34.7521C95.716 35.2257 95.45 35.8679 95.45 36.5376C95.45 37.2073 95.716 37.8495 96.1896 38.323C96.6631 38.7966 97.3053 39.0626 97.975 39.0626C98.6447 39.0626 99.2869 38.7966 99.7604 38.323C100.234 37.8495 100.5 37.2073 100.5 36.5376C100.5 35.8679 100.234 35.2257 99.7604 34.7521C99.2869 34.2786 98.6447 34.0126 97.975 34.0126ZM97.9417 34.4501C97.9444 34.4501 97.9472 34.4501 97.95 34.4501C98.2239 34.4501 98.4952 34.5041 98.7482 34.6091C99.0013 34.714 99.2311 34.8679 99.4246 35.0617C99.6181 35.2556 99.7715 35.4858 99.8759 35.739C99.9804 35.9923 100.034 36.2636 100.033 36.5376C100.033 36.8112 99.9794 37.0821 99.8747 37.3348C99.77 37.5876 99.6166 37.8173 99.4231 38.0107C99.2297 38.2042 99 38.3576 98.7473 38.4623C98.4945 38.567 98.2236 38.6209 97.95 38.6209C97.3975 38.6209 96.8676 38.4014 96.4769 38.0107C96.0862 37.62 95.8667 37.0901 95.8667 36.5376C95.8667 35.9865 96.085 35.4578 96.4739 35.0674C96.8628 34.6769 97.3906 34.4523 97.9417 34.4501ZM96.9708 35.0959V38.0084H97.5125V36.8209H97.9L98.6208 38.0084H99.1875L98.4375 36.7709C98.6237 36.7533 98.7978 36.6707 98.9292 36.5376C99.0542 36.4126 99.1375 36.2293 99.1375 35.9709C99.1375 35.6876 99.0542 35.4834 98.875 35.3292C98.7208 35.1709 98.4375 35.0959 98.1042 35.0959H96.9708ZM97.5125 35.5084H98.1542C98.2333 35.5084 98.3083 35.5334 98.3875 35.5584C98.4538 35.5797 98.5091 35.6261 98.5417 35.6876C98.5958 35.7417 98.5917 35.8167 98.5917 35.9209C98.5928 36.0001 98.5757 36.0785 98.5417 36.1501C98.4969 36.2005 98.445 36.244 98.3875 36.2792C98.3083 36.3042 98.2333 36.3334 98.1542 36.3334H97.5125V35.5084Z" fill="#576F75"/>
</svg>
