<svg width="101" height="14" viewBox="0 0 101 14" fill="none" xmlns="http://www.w3.org/2000/svg">
<path d="M21.9375 4.12913H28.75C29.4861 4.12466 30.1942 4.4111 30.7202 4.92613C31.2461 5.44116 31.5474 6.14309 31.5583 6.87913V13.1666H21.3708C20.9214 13.1689 20.4894 12.993 20.1692 12.6776C19.8491 12.3621 19.6669 11.9327 19.6625 11.4833V9.29997C19.668 8.88149 19.8389 8.4822 20.138 8.18941C20.437 7.89661 20.8398 7.73413 21.2583 7.73747H26.9L26.3 9.01247H22.1417C21.9625 9.01247 21.7583 9.15413 21.7583 9.34997V11.0666C21.7583 11.2625 21.9625 11.4083 22.1417 11.4083H29.35V7.2833C29.35 6.48747 28.6458 5.87496 27.8625 5.87496H21.1042L21.9375 4.12913ZM77.8833 0.849967V13.1791H67.9542C67.5054 13.1814 67.074 13.0061 66.754 12.6915C66.434 12.377 66.2513 11.9487 66.2458 11.5V6.87497C66.2579 6.13892 66.5602 5.43743 67.0869 4.92318C67.6137 4.40893 68.3222 4.12354 69.0583 4.12913H74.7125L73.8792 5.88747H69.9292C69.1458 5.88747 68.4417 6.49997 68.4417 7.29163V11.0833C68.4417 11.275 68.6458 11.4166 68.825 11.4166H75.675V0.849967H77.8833ZM43 13.1791H45.1958V6.88746C45.1838 6.15215 44.882 5.45129 44.3562 4.93715C43.8304 4.42302 43.1229 4.13714 42.3875 4.14163H37.7167L36.8833 5.89997H41.5125C42.2958 5.89997 43 6.51247 43 7.30413V13.1791ZM33.8542 0.845799V13.1791H36.05V0.845799H33.8542ZM15.5208 13.1791H17.7167V6.88746C17.7046 6.15215 17.4029 5.45129 16.877 4.93715C16.3512 4.42302 15.6437 4.13714 14.9083 4.14163H0.5V13.1791H2.69167V6.22497C2.69167 6.02913 2.9 5.88747 3.07917 5.88747H7.62083C7.8 5.88747 8.00417 6.02913 8.00417 6.22497V13.1791H10.2V6.22497C10.2 6.02913 10.4042 5.88747 10.5833 5.88747H14.0333C14.8167 5.88747 15.5208 6.49997 15.5208 7.29163V13.1791ZM89.3542 4.12913H83.8333C83.0972 4.12466 82.3891 4.4111 81.8632 4.92613C81.3372 5.44116 81.036 6.14309 81.025 6.87913V13.1666H83.2208V7.29163C83.2208 6.49997 83.925 5.88747 84.7083 5.88747H88.5167L89.3542 4.12913ZM61.2167 4.12913C61.9535 4.12355 62.6627 4.40951 63.1895 4.92466C63.7164 5.43981 64.0182 6.14236 64.0292 6.87913V13.1666H61.8333V7.29163C61.8333 6.49997 61.125 5.88747 60.3458 5.88747H55.0625V13.1791H52.8667V4.14163C55.6375 4.14163 58.4208 4.12913 61.2167 4.12913ZM47.925 4.69997L50.1208 3.42497V13.1666H47.9292L47.925 4.69997ZM50.1333 2.16247V0.820801H47.9417V3.42497L50.1333 2.16247ZM90.8917 4.12913H97.6917C98.4278 4.12466 99.1359 4.4111 99.6618 4.92613C100.188 5.44116 100.489 6.14309 100.5 6.87913V13.1666H90.3125C89.8631 13.1689 89.431 12.993 89.1109 12.6776C88.7908 12.3621 88.6086 11.9327 88.6042 11.4833V9.29997C88.6097 8.88149 88.7806 8.4822 89.0797 8.18941C89.3787 7.89661 89.7815 7.73413 90.2 7.73747H95.8417L95.2417 9.01247H91.0833C90.9042 9.01247 90.7 9.15413 90.7 9.34997V11.0666C90.7 11.2625 90.9042 11.4083 91.0833 11.4083H98.2917V7.2833C98.2917 6.48747 97.5875 5.87496 96.8042 5.87496H90.0458L90.8917 4.12913Z" fill="#576F75"/>
</svg>
