<svg width="101" height="14" viewBox="0 0 101 14" fill="none" xmlns="http://www.w3.org/2000/svg">
<path d="M0.5 13.6666L2.35417 10.8416H13.0958C13.7042 10.8416 14.1042 10.4666 14.1042 9.88326V8.24992H4.86667C2.11667 8.24992 0.895833 7.09159 0.895833 4.52075V3.41242C0.895833 1.49575 2.0875 0.33742 3.96667 0.33742H4.175V4.47075C4.175 5.05409 4.575 5.42909 5.18333 5.42909H14.1292C16.1708 5.42909 17.3833 6.58742 17.3833 8.47909V9.93742C17.3833 12.4374 16.0917 13.6708 13.4167 13.6708L0.5 13.6666ZM64.8875 10.7916H73.1958C74.5708 10.7916 75.4458 9.98742 75.4458 8.72492V5.27492C75.4458 4.01242 74.5708 3.20825 73.1958 3.20825H64.8875V10.7916ZM61.5542 13.6666V0.333252H73.2792C76.7708 0.333252 78.7792 2.24992 78.7792 5.42492V8.57492C78.7792 11.7499 76.7708 13.6666 73.2792 13.6666H61.5542ZM45.3917 10.7916H52.4083C53.675 10.7916 54.4958 10.0374 54.4958 8.85409V5.14576C54.4958 3.96242 53.675 3.20825 52.4083 3.20825H45.3917C44.125 3.20825 43.3042 3.96242 43.3042 5.14576V8.85409C43.3042 10.0374 44.125 10.7916 45.3917 10.7916ZM52.4875 13.6666H45.3125C41.925 13.6666 39.9667 11.7999 39.9667 8.69992V5.29992C39.9667 2.19992 41.925 0.333252 45.3125 0.333252H52.4875C55.875 0.333252 57.8333 2.19992 57.8333 5.29992V8.69992C57.8333 11.7999 55.875 13.6666 52.4875 13.6666ZM80.15 13.6666L88.0083 0.333252H92.6417L100.5 13.6666H96.6875L95.3375 11.3749H88.6417L86.8458 8.64992L83.8792 13.6666H80.15ZM86.925 8.49992H93.6458L90.2833 2.82909L86.925 8.49992ZM7.45833 3.10409L5.55417 0.333252H17.0667L15.2125 3.10409H7.45833ZM21.0542 13.6666V0.333252H24.3875V5.52492H28.8083L34.55 0.333252H38.9708L31.6667 6.95825L39.1042 13.6666H34.4167L28.6708 8.39992H24.3875V13.6666H21.0542Z" fill="#576F75"/>
</svg>
