<svg width="51" height="74" viewBox="0 0 51 74" fill="none" xmlns="http://www.w3.org/2000/svg">
<path d="M28.7297 14.7294C28.8914 14.7188 29.0535 14.744 29.2043 14.8031C29.3551 14.8623 29.4908 14.9539 29.6016 15.0714C29.7125 15.1889 29.7957 15.3293 29.8453 15.4826C29.895 15.6359 29.9098 15.7982 29.8887 15.9579L29.8998 16.97C29.9035 19.1446 29.8924 21.3155 29.9072 23.4864C29.9219 25.0779 30.2025 25.3822 31.7527 25.5766C35.621 25.9301 39.5162 25.8735 43.3724 25.4079C45.3704 25.2701 47.3319 24.8068 49.1785 24.0364C49.6336 23.8974 50.0182 23.5914 50.2541 23.1806C50.49 22.7698 50.5594 22.2851 50.4483 21.8252C49.7137 16.7491 47.4286 12.0193 43.9017 8.27469C40.3748 4.5301 35.776 1.95117 30.7266 0.886267C26.2435 -0.0819187 21.5765 0.225664 17.2614 1.77369C13.4724 3.08451 10.0602 5.28914 7.3175 8.19838C3.09545 12.3702 0.653812 17.9978 0.5 23.9117C0.579928 31.0266 2.52101 37.9985 6.13265 44.1429C6.5737 45.0413 7.27969 45.785 8.15665 46.275C9.03362 46.765 10.04 46.9781 11.0418 46.8859C13.4521 46.8272 15.8661 46.8712 18.2764 46.8712V46.8602H25.9687C26.8915 46.8602 27.6187 47.0802 27.6113 48.2243C27.5928 50.8866 27.6113 53.5416 27.6002 56.2039C27.5928 57.0106 27.364 57.788 26.3969 57.7954C25.4225 57.8027 25.1899 57.029 25.1788 56.2185C25.1604 54.9461 25.1788 53.6736 25.1788 52.4011C25.1788 50.7473 24.9094 50.3586 23.2484 50.0542C20.3802 49.5898 17.4573 49.5651 14.5816 49.9809C13.5651 50.0628 12.5683 50.3054 11.6287 50.6996C10.8462 51.0663 10.5362 51.598 10.9163 52.4121C11.3113 53.2592 11.6767 54.1246 12.1455 54.9351C15.9366 61.2738 20.1618 67.3461 24.7913 73.109C25.3597 73.8388 25.7989 73.8534 26.3821 73.1457C27.6703 71.5835 29.0213 70.069 30.2947 68.4959C35.2889 62.4874 39.7091 56.0299 43.4979 49.2071C46.0272 44.7698 47.8852 39.9868 49.0124 35.0119C49.2624 34.3748 49.3599 33.6886 49.2972 33.0076C49.2344 32.3266 49.0132 31.6694 48.6509 31.0879C48.2886 30.5064 47.7953 30.0166 47.2097 29.657C46.6242 29.2975 45.9625 29.0782 45.277 29.0163C43.254 28.5714 41.1842 28.372 39.1128 28.4222C35.7576 28.4002 32.4024 28.4112 29.0471 28.4149C28.1428 28.4149 27.471 28.1582 27.471 27.1021C27.471 23.3984 27.4636 19.6873 27.4784 15.9799C27.4784 15.1878 27.8623 14.6964 28.7297 14.7294Z" fill="#576F75"/>
</svg>
